<mxfile host="Electron" modified="2023-10-11T17:35:38.917Z" agent="Mozilla/5.0 (Windows NT 10.0; Win64; x64) AppleWebKit/537.36 (KHTML, like Gecko) draw.io/22.0.2 Chrome/114.0.5735.289 Electron/25.8.4 Safari/537.36" etag="VtDxToq1rQNm9Zku1Nap" version="22.0.2" type="device">
  <diagram name="Страница — 1" id="jM4UAXQ-53DUuUMlllH-">
    <mxGraphModel dx="1090" dy="697" grid="1" gridSize="10" guides="1" tooltips="1" connect="1" arrows="1" fold="1" page="1" pageScale="1" pageWidth="1654" pageHeight="1169" math="0" shadow="0">
      <root>
        <mxCell id="0" />
        <mxCell id="1" parent="0" />
        <mxCell id="In0g9n-9haiToU50004C-3" style="edgeStyle=orthogonalEdgeStyle;rounded=0;orthogonalLoop=1;jettySize=auto;html=1;startArrow=classic;startFill=1;" edge="1" parent="1" source="In0g9n-9haiToU50004C-1" target="In0g9n-9haiToU50004C-2">
          <mxGeometry relative="1" as="geometry" />
        </mxCell>
        <mxCell id="In0g9n-9haiToU50004C-4" value="gRPC" style="edgeLabel;html=1;align=center;verticalAlign=middle;resizable=0;points=[];" vertex="1" connectable="0" parent="In0g9n-9haiToU50004C-3">
          <mxGeometry x="-0.1" y="3" relative="1" as="geometry">
            <mxPoint x="6" y="3" as="offset" />
          </mxGeometry>
        </mxCell>
        <mxCell id="In0g9n-9haiToU50004C-15" style="edgeStyle=orthogonalEdgeStyle;rounded=0;orthogonalLoop=1;jettySize=auto;html=1;startArrow=classic;startFill=1;" edge="1" parent="1" source="In0g9n-9haiToU50004C-1" target="In0g9n-9haiToU50004C-7">
          <mxGeometry relative="1" as="geometry">
            <Array as="points">
              <mxPoint x="540" y="690" />
              <mxPoint x="1190" y="690" />
            </Array>
          </mxGeometry>
        </mxCell>
        <mxCell id="In0g9n-9haiToU50004C-16" value="???" style="edgeLabel;html=1;align=center;verticalAlign=middle;resizable=0;points=[];" vertex="1" connectable="0" parent="In0g9n-9haiToU50004C-15">
          <mxGeometry x="-0.05" relative="1" as="geometry">
            <mxPoint as="offset" />
          </mxGeometry>
        </mxCell>
        <mxCell id="In0g9n-9haiToU50004C-1" value="bot" style="rounded=1;whiteSpace=wrap;html=1;" vertex="1" parent="1">
          <mxGeometry x="480" y="510" width="120" height="60" as="geometry" />
        </mxCell>
        <mxCell id="In0g9n-9haiToU50004C-6" style="edgeStyle=orthogonalEdgeStyle;rounded=0;orthogonalLoop=1;jettySize=auto;html=1;startArrow=classic;startFill=1;" edge="1" parent="1" source="In0g9n-9haiToU50004C-2" target="In0g9n-9haiToU50004C-5">
          <mxGeometry relative="1" as="geometry" />
        </mxCell>
        <mxCell id="In0g9n-9haiToU50004C-10" style="edgeStyle=orthogonalEdgeStyle;rounded=0;orthogonalLoop=1;jettySize=auto;html=1;dashed=1;" edge="1" parent="1" source="In0g9n-9haiToU50004C-2" target="In0g9n-9haiToU50004C-14">
          <mxGeometry relative="1" as="geometry">
            <mxPoint x="950" y="540" as="targetPoint" />
          </mxGeometry>
        </mxCell>
        <mxCell id="In0g9n-9haiToU50004C-2" value="{subdomain}-api" style="rounded=1;whiteSpace=wrap;html=1;" vertex="1" parent="1">
          <mxGeometry x="720" y="510" width="120" height="60" as="geometry" />
        </mxCell>
        <mxCell id="In0g9n-9haiToU50004C-5" value="DB" style="shape=cylinder3;whiteSpace=wrap;html=1;boundedLbl=1;backgroundOutline=1;size=15;" vertex="1" parent="1">
          <mxGeometry x="750" y="330" width="60" height="80" as="geometry" />
        </mxCell>
        <mxCell id="In0g9n-9haiToU50004C-13" style="edgeStyle=orthogonalEdgeStyle;rounded=0;orthogonalLoop=1;jettySize=auto;html=1;startArrow=classic;startFill=1;" edge="1" parent="1" source="In0g9n-9haiToU50004C-7" target="In0g9n-9haiToU50004C-12">
          <mxGeometry relative="1" as="geometry" />
        </mxCell>
        <mxCell id="In0g9n-9haiToU50004C-7" value="{subdomain}-fasade" style="rounded=1;whiteSpace=wrap;html=1;" vertex="1" parent="1">
          <mxGeometry x="1130" y="510" width="120" height="60" as="geometry" />
        </mxCell>
        <mxCell id="In0g9n-9haiToU50004C-11" style="edgeStyle=orthogonalEdgeStyle;rounded=0;orthogonalLoop=1;jettySize=auto;html=1;dashed=1;" edge="1" parent="1" source="In0g9n-9haiToU50004C-14" target="In0g9n-9haiToU50004C-7">
          <mxGeometry relative="1" as="geometry">
            <mxPoint x="1070" y="540" as="sourcePoint" />
          </mxGeometry>
        </mxCell>
        <mxCell id="In0g9n-9haiToU50004C-12" value="DB" style="shape=cylinder3;whiteSpace=wrap;html=1;boundedLbl=1;backgroundOutline=1;size=15;" vertex="1" parent="1">
          <mxGeometry x="1160" y="330" width="60" height="80" as="geometry" />
        </mxCell>
        <mxCell id="In0g9n-9haiToU50004C-14" value="Kafka" style="shape=hexagon;perimeter=hexagonPerimeter2;whiteSpace=wrap;html=1;fixedSize=1;" vertex="1" parent="1">
          <mxGeometry x="930" y="500" width="120" height="80" as="geometry" />
        </mxCell>
        <mxCell id="In0g9n-9haiToU50004C-17" value="Создает сущьности" style="text;html=1;align=center;verticalAlign=middle;resizable=0;points=[];autosize=1;strokeColor=none;fillColor=none;" vertex="1" parent="1">
          <mxGeometry x="710" y="580" width="130" height="30" as="geometry" />
        </mxCell>
        <mxCell id="In0g9n-9haiToU50004C-18" value="Что делает?" style="text;html=1;align=left;verticalAlign=middle;resizable=0;points=[];autosize=1;strokeColor=none;fillColor=none;" vertex="1" parent="1">
          <mxGeometry x="1270" y="525" width="90" height="30" as="geometry" />
        </mxCell>
        <mxCell id="In0g9n-9haiToU50004C-19" value="Какой протокол?&lt;br&gt;&lt;div style=&quot;text-align: left;&quot;&gt;&lt;span style=&quot;background-color: initial;&quot;&gt;Какая инфа?&lt;/span&gt;&lt;/div&gt;" style="text;html=1;align=center;verticalAlign=middle;resizable=0;points=[];autosize=1;strokeColor=none;fillColor=none;" vertex="1" parent="1">
          <mxGeometry x="780" y="710" width="120" height="40" as="geometry" />
        </mxCell>
        <mxCell id="In0g9n-9haiToU50004C-20" value="CRUD" style="text;html=1;align=center;verticalAlign=middle;resizable=0;points=[];autosize=1;strokeColor=none;fillColor=none;" vertex="1" parent="1">
          <mxGeometry x="630" y="490" width="60" height="30" as="geometry" />
        </mxCell>
        <mxCell id="In0g9n-9haiToU50004C-22" style="edgeStyle=orthogonalEdgeStyle;rounded=0;orthogonalLoop=1;jettySize=auto;html=1;" edge="1" parent="1" source="In0g9n-9haiToU50004C-21" target="In0g9n-9haiToU50004C-1">
          <mxGeometry relative="1" as="geometry" />
        </mxCell>
        <mxCell id="In0g9n-9haiToU50004C-21" value="User" style="shape=umlActor;verticalLabelPosition=bottom;verticalAlign=top;html=1;outlineConnect=0;" vertex="1" parent="1">
          <mxGeometry x="320" y="510" width="30" height="60" as="geometry" />
        </mxCell>
      </root>
    </mxGraphModel>
  </diagram>
</mxfile>
